<svg xmlns="http://www.w3.org/2000/svg" width="1955" height="434" viewBox="0 0 1955 434" fill="none">
    <path
        d="M309.163 66.2963V75.7686C309.163 92.1476 303.545 100.338 292.308 100.338C291.322 100.338 277.424 93.6282 250.613 80.2086C223.802 66.7896 200.244 60.0801 179.939 60.0801C173.236 60.0801 165.252 62.4482 155.987 67.1844C146.918 71.9206 140.117 78.4324 135.583 86.721C131.245 94.812 129.077 109.415 129.077 130.531C129.077 172.367 143.271 193.285 171.659 193.285C180.333 193.285 191.176 189.536 204.187 182.037C217.395 174.341 224.985 170.493 226.956 170.493C242.136 170.493 249.726 187.563 249.726 221.703C249.726 240.45 246.178 253.672 239.081 261.368C235.926 264.92 232.279 266.696 228.139 266.696C224 266.696 216.114 264.427 204.482 259.888C193.048 255.152 185.064 252.784 180.53 252.784C161.605 252.784 147.51 257.126 138.244 265.808C131.936 271.729 128.781 284.063 128.781 302.81C128.781 321.557 131.443 339.812 136.765 357.572C142.088 375.136 147.115 388.654 151.847 398.126C156.775 407.599 159.24 412.433 159.24 412.631C159.24 423.09 148.988 428.32 128.486 428.32L118.431 428.023H108.082C58.9945 428.023 27.8464 425.952 14.6381 421.807C5.96403 419.044 1.62697 414.012 1.62697 406.711C1.62697 399.409 7.7383 392.305 19.9609 385.398C32.3806 378.49 39.6747 370.104 41.8433 360.237C42.6318 356.487 43.0261 315.638 43.0261 237.687C43.0261 159.54 41.5476 112.869 38.5905 97.6734C35.8305 82.4781 28.7336 69.0591 17.2995 57.4157C5.86546 45.5753 0.148438 36.3989 0.148438 29.8866C0.148438 23.3743 5.17545 19.3288 15.2295 17.7501C32.972 14.79 77.5254 13.3099 148.89 13.3099L180.826 12.4219H212.763L223.112 12.7179C261.949 12.7179 284.816 14.9873 291.717 19.5262C303.348 27.2225 309.163 42.8125 309.163 66.2963Z"
        fill="black"></path>
    <path
        d="M351.08 40.8693C351.08 29.4234 355.516 19.7537 364.387 11.86C373.455 3.96637 383.213 0.0195312 393.662 0.0195312H403.125C406.082 0.611555 408.546 0.90757 410.517 0.90757C419.98 0.90757 428.358 5.15041 435.652 13.6361C442.947 22.1218 446.593 30.2128 446.593 37.9092V45.6054C446.2 47.5789 446.002 49.0589 446.002 50.0456C446.002 58.334 441.369 66.425 432.104 74.3189C422.838 82.2121 412.587 86.1593 401.35 86.1593H392.183C381.144 86.1593 371.582 82.7055 363.5 75.7988C355.614 68.6945 351.672 60.6036 351.672 51.5257L351.08 48.5656V40.8693ZM407.264 425.982H379.172C352.953 425.982 337.182 425.291 331.859 423.909C326.733 422.331 324.171 418.088 324.171 411.181C324.171 404.076 329.099 395.591 338.956 385.724C348.813 375.857 355.023 365.99 357.585 356.123C360.149 346.058 361.43 320.108 361.43 278.272C361.43 236.238 360.345 211.471 358.177 203.972C356.009 196.473 349.207 190.059 337.773 184.731C326.536 179.206 320.918 172.694 320.918 165.195C320.918 157.498 326.142 151.874 336.59 148.322C360.247 140.428 386.368 136.481 414.953 136.481H419.389C430.822 136.481 437.427 141.316 439.201 150.986C440.187 156.511 440.679 189.665 440.679 250.446C440.679 311.03 441.961 346.552 444.524 357.011C447.284 367.273 454.184 378.225 465.223 389.868C476.263 401.511 481.783 408.813 481.783 411.773V415.325C481.783 422.429 456.943 425.982 407.264 425.982Z"
        fill="black"></path>
    <path
        d="M506.515 179.096C497.841 173.176 493.504 167.453 493.504 161.927C493.504 156.205 498.728 150.58 509.176 145.054C519.625 139.529 526.13 135.089 528.693 131.734C531.256 128.379 535.297 119.104 540.82 103.909C546.537 88.7135 552.545 77.0707 558.855 68.9791C565.165 60.6911 573.444 56.5469 583.697 56.5469C593.945 56.5469 601.34 60.6911 605.871 68.9791C607.846 72.7287 610.408 81.6092 613.563 95.6207C616.914 109.632 620.858 118.611 625.389 122.558C629.925 126.504 638.596 130.944 651.411 135.878C664.227 140.615 670.828 143.081 671.225 143.278C677.926 148.607 681.277 154.922 681.277 162.223C681.277 168.538 671.913 174.163 653.185 179.096C634.658 184.03 622.726 191.528 617.406 201.593C612.282 211.657 609.714 236.818 609.714 277.076C609.714 317.334 612.774 343.481 618.883 355.52C625.193 367.557 635.447 373.576 649.638 373.576L660.283 372.688C665.016 372.293 670.14 372.096 675.661 372.096C687.688 372.096 693.696 376.635 693.696 385.713C693.696 397.356 686.407 406.631 671.818 413.538C650.919 423.405 628.84 428.339 605.575 428.339C594.734 428.339 583.893 425.379 573.052 419.458C562.205 413.538 553.926 406.335 548.209 397.849C536.973 381.272 531.354 357.591 531.354 326.806L531.059 320.59C530.862 316.249 530.763 311.414 530.763 306.085V288.621C530.763 254.48 528.003 225.373 522.483 201.297C520.512 192.416 515.189 185.016 506.515 179.096Z"
        fill="black"></path>
    <path
        d="M827.858 177.881V424.783H764.544V177.881H721.602V127.178H764.544V112.849C764.544 105.5 765.096 96.4986 766.199 85.8437C767.302 74.8212 771.151 64.1663 777.757 53.8786C784.364 43.591 794.825 34.7731 809.141 27.4248C823.457 20.0765 843.828 16.4023 870.255 16.4023H879.613C879.613 16.4023 897.914 17.5046 914.062 19.7091C930.211 21.5461 944.705 25.5877 957.556 31.8337L960.859 80.3327C952.782 75.5562 940.488 72.0655 923.972 69.8612C907.823 67.6564 907.326 66.5546 883.468 66.5546H873.558C862.545 66.5546 853.922 68.2079 847.677 71.5146C841.806 74.4538 837.222 78.3119 833.919 83.0879C830.977 87.497 829.145 92.457 828.409 97.9685C828.041 103.112 827.858 108.072 827.858 112.849V127.178L960.859 126.289V176.992L827.858 177.881Z"
        fill="black"></path>
    <path
        d="M1134.63 118.914C1155.19 118.914 1174.27 121.67 1191.89 127.181C1209.51 132.325 1224.74 140.224 1237.59 150.879C1250.8 161.167 1261.08 174.026 1268.42 189.458C1276.12 204.522 1279.98 221.79 1279.98 241.263V288.108H1051.5V307.398C1051.5 317.318 1053.7 326.687 1058.11 335.505C1062.51 343.955 1068.38 351.488 1075.73 358.101C1083.43 364.714 1092.24 369.858 1102.15 373.532C1112.43 377.207 1123.25 379.043 1134.63 379.043C1151.15 379.043 1164.73 376.839 1175.38 372.43C1186.38 368.021 1195.01 362.693 1201.25 356.448C1207.49 349.834 1212.08 342.853 1215.02 335.505C1217.95 327.789 1219.78 320.809 1220.52 314.562H1279.43C1276.49 353.508 1263.28 383.085 1239.79 403.293C1216.66 423.133 1181.61 433.054 1134.63 433.054C1120.32 433.054 1104.54 430.849 1087.28 426.44C1070.4 422.031 1054.62 414.866 1039.94 404.946C1025.63 395.026 1013.51 382.167 1003.6 366.368C993.69 350.202 988.738 330.545 988.738 307.398V248.427C988.738 223.076 993.506 202.134 1003.05 185.6C1012.59 168.699 1024.52 155.288 1038.84 145.368C1053.15 135.447 1068.75 128.651 1085.64 124.976C1102.88 120.935 1119.22 118.914 1134.63 118.914ZM1051.5 241.263H1221.07C1221.07 233.915 1219.6 226.383 1216.66 218.667C1214.1 210.584 1209.51 203.236 1202.9 196.622C1196.29 190.009 1187.49 184.498 1176.47 180.089C1165.47 175.68 1151.7 173.475 1135.19 173.475C1123.07 173.475 1111.88 175.312 1101.6 178.986C1091.32 182.66 1082.33 187.62 1074.62 193.867C1067.28 199.745 1061.59 206.543 1057.56 214.258C1053.52 221.607 1051.5 229.322 1051.5 237.405V241.263Z"
        fill="black"></path>
    <path
        d="M1459.39 119.184C1479.94 119.184 1499.03 121.939 1516.64 127.45C1534.26 132.594 1549.5 140.494 1562.34 151.148C1575.56 161.437 1585.83 174.296 1593.17 189.727C1600.88 204.791 1604.73 222.06 1604.73 241.533V288.378H1376.25V307.667C1376.25 317.587 1378.46 326.956 1382.86 335.775C1387.26 344.225 1393.13 351.757 1400.48 358.37C1408.19 364.984 1416.99 370.128 1426.9 373.802C1437.18 377.476 1448.01 379.313 1459.39 379.313C1475.91 379.313 1489.49 377.109 1500.13 372.7C1511.14 368.29 1519.76 362.963 1526.01 356.717C1532.25 350.104 1536.83 343.123 1539.76 335.775C1542.71 328.059 1544.54 321.078 1545.27 314.832H1604.18C1601.25 353.778 1588.03 383.354 1564.54 403.563C1541.42 423.403 1506.36 433.323 1459.39 433.323C1445.07 433.323 1429.29 431.118 1412.04 426.709C1395.16 422.301 1379.37 415.136 1364.69 405.216C1350.38 395.295 1338.27 382.436 1328.36 366.637C1318.45 350.471 1313.49 330.814 1313.49 307.667V248.697C1313.49 223.345 1318.26 202.403 1327.8 185.869C1337.35 168.968 1349.28 155.558 1363.59 145.638C1377.9 135.717 1393.5 128.92 1410.39 125.246C1427.64 121.204 1443.97 119.184 1459.39 119.184ZM1376.25 241.533H1545.83C1545.83 234.184 1544.36 226.652 1541.42 218.936C1538.85 210.854 1534.26 203.505 1527.65 196.892C1521.05 190.278 1512.24 184.767 1501.23 180.358C1490.22 175.949 1476.45 173.745 1459.94 173.745C1447.83 173.745 1436.63 175.582 1426.35 179.256C1416.07 182.93 1407.08 187.89 1399.38 194.136C1392.04 200.015 1386.34 206.812 1382.31 214.528C1378.27 221.876 1376.25 229.591 1376.25 237.675V241.533Z"
        fill="black"></path>
    <path
        d="M1890.39 237.963C1889.66 234.289 1887.82 229.145 1884.89 222.532C1881.95 215.918 1877.18 209.121 1870.57 202.14C1863.96 195.159 1854.97 189.097 1843.59 183.953C1832.22 178.442 1817.72 175.135 1800.1 174.033C1796.43 173.665 1792.76 173.482 1789.09 173.482C1785.79 173.482 1782.3 173.482 1778.63 173.482C1756.97 174.951 1738.81 181.932 1724.12 194.424C1709.81 206.917 1702.47 224.92 1702.1 248.434V304.649C1702.1 317.141 1704.3 327.98 1708.71 337.165C1713.11 346.35 1718.99 354.066 1726.32 360.312C1734.03 366.191 1743.02 370.783 1753.3 374.09C1763.58 377.029 1774.41 378.499 1785.79 378.499C1796.79 378.499 1807.62 377.581 1818.27 375.743C1829.28 373.907 1839.38 370.783 1848.55 366.374C1857.72 361.965 1865.8 355.903 1872.78 348.188C1879.74 340.472 1885.07 330.735 1888.74 318.978C1889.48 312.732 1890.02 307.955 1890.39 304.649V237.963ZM1897.55 195.527L1890.39 25.7812H1954.81V424.793H1890.39L1897 354.801L1892.6 347.636C1891.12 361.965 1887.09 374.458 1880.48 385.112C1874.24 395.767 1865.8 404.769 1855.16 412.117C1844.88 419.098 1832.59 424.242 1818.27 427.549C1804.32 431.223 1788.91 433.06 1772.02 433.06C1753.3 433.06 1736.06 430.856 1720.27 426.446C1704.86 422.038 1691.27 415.424 1679.53 406.606C1668.15 397.421 1658.98 386.031 1652 372.437C1645.03 358.843 1640.81 342.676 1639.34 323.938C1638.61 319.529 1638.24 315.12 1638.24 310.711C1638.24 306.302 1638.24 301.526 1638.24 296.382V248.434C1638.24 205.079 1649.98 172.747 1673.47 151.437C1697.33 130.127 1730.18 119.472 1772.02 119.472C1805.79 119.472 1833.5 126.452 1855.16 140.415C1876.81 154.009 1889.29 175.135 1892.6 203.794L1897.55 195.527Z"
        fill="black"></path>
</svg>