<?xml version="1.0" standalone="no"?>
<!DOCTYPE svg PUBLIC "-//W3C//DTD SVG 20010904//EN"
 "http://www.w3.org/TR/2001/REC-SVG-20010904/DTD/svg10.dtd">
<svg version="1.0" xmlns="http://www.w3.org/2000/svg"
 width="500.000000pt" height="500.000000pt" viewBox="0 0 500.000000 500.000000"
 preserveAspectRatio="xMidYMid meet">

<g transform="translate(0.000000,500.000000) scale(0.100000,-0.100000)"
fill="#000000" stroke="none">
<path d="M3601 3145 c-77 -66 -55 -180 40 -205 70 -19 136 26 146 98 14 104
-106 173 -186 107z"/>
<path d="M1656 2888 c-7 -18 -113 -259 -235 -536 -121 -277 -221 -508 -221
-513 0 -6 43 -9 106 -7 l107 3 233 535 c129 294 234 538 234 543 0 4 -47 7
-105 7 l-105 0 -14 -32z"/>
<path d="M2027 2378 l-246 -543 96 -3 c52 -1 98 -1 100 2 8 8 483 1067 483
1077 0 5 -41 9 -94 9 l-93 0 -246 -542z"/>
<path d="M2642 2393 c-127 -291 -234 -536 -238 -546 -6 -16 2 -17 102 -15
l109 3 232 530 c128 292 233 536 233 543 0 9 -27 12 -103 12 l-103 0 -232
-527z"/>
<path d="M3093 2787 c-11 -28 -37 -88 -56 -132 l-34 -80 58 -139 c33 -76 59
-143 59 -147 0 -5 -57 -10 -126 -11 l-126 -3 -44 -100 c-24 -55 -44 -101 -44
-102 0 -2 100 -3 223 -3 l223 0 50 -117 50 -118 108 -3 c103 -3 108 -2 103 17
-8 33 -412 990 -417 991 -3 0 -15 -24 -27 -53z"/>
</g>
</svg>
