<svg xmlns="http://www.w3.org/2000/svg" width="61" height="72" viewBox="0 0 61 72" fill="none"><path d="M29.4995 0.394531C30.016 -0.131397 30.8598 -0.131397 31.3862 0.394531L60.4683 29.4492C60.9846 29.9652 60.9847 30.819 60.4683 31.335L59.2271 32.5752L55.8003 36.0088L60.4585 40.6621C60.9749 41.1781 60.9749 42.0219 60.4585 42.5479L31.3667 71.6123C30.8502 72.1283 29.9955 72.1283 29.479 71.6123L0.387207 42.5479C-0.129065 42.0319 -0.129097 41.1781 0.387207 40.6621L1.62939 39.4219L5.06592 35.998L0.397949 31.335C-0.118526 30.819 -0.118526 29.9652 0.397949 29.4492L29.4995 0.394531ZM32.6274 59.1689L31.3862 60.4092C30.8698 60.9351 30.016 60.9351 29.4995 60.4092L7.26123 38.1914L3.82471 41.6152L30.438 68.2041L57.0513 41.6152L53.6245 38.1914L32.6274 59.1689ZM3.82471 30.4014L9.43604 36.0088L30.4429 56.9863L51.4399 36.0088L57.0513 30.4014L30.4331 3.80762L3.82471 30.4014ZM29.4888 11.8154C30.0051 11.2998 30.8491 11.2999 31.3755 11.8154L32.6177 13.0566L47.7837 28.209L49.0259 29.4492C49.5422 29.9652 49.5423 30.819 49.0259 31.335L47.9233 32.4365L47.7837 32.5752L32.6177 47.7275L31.3755 48.9678C30.859 49.4838 30.0052 49.4838 29.4888 48.9678L28.2476 47.7275L13.0806 32.5752L11.8394 31.335C11.3129 30.819 11.3129 29.9652 11.8394 29.4492L13.0806 28.209L28.2476 13.0566L29.4888 11.8154ZM15.2759 30.3916L30.4419 45.5449L45.6089 30.3916L30.4419 15.2393L15.2759 30.3916ZM29.4976 23.2666C30.014 22.7506 30.8688 22.7506 31.3853 23.2666L37.5728 29.4482C38.0892 29.9642 38.0892 30.818 37.5728 31.334L31.3853 37.5166C30.8688 38.0324 30.014 38.0325 29.4976 37.5166L23.3101 31.334C22.7937 30.818 22.7936 29.9642 23.3101 29.4482L29.4976 23.2666ZM26.7271 30.3916L30.4419 34.1025L34.1567 30.3916L30.4419 26.6797L26.7271 30.3916Z" fill="#E76353" style="fill:#E76353;fill:color(display-p3 0.9059 0.3882 0.3255);fill-opacity:1;"></path></svg>